<?xml version="1.0" encoding="UTF-8"?>
<svg width="512" height="512" viewBox="0 0 512 512" xmlns="http://www.w3.org/2000/svg">
  <!-- Transparent background -->
  
  <!-- Golden Crown -->
  <path d="M256 80 L320 180 L290 180 L290 350 L222 350 L222 180 L192 180 Z" 
        fill="#D4AF37" stroke="#B8860B" stroke-width="4"/>
  
  <!-- Crown top points -->
  <polygon points="256,60 280,120 256,100 232,120" fill="#D4AF37" stroke="#B8860B" stroke-width="2"/>
  <polygon points="192,150 220,180 192,170 164,180" fill="#D4AF37" stroke="#B8860B" stroke-width="2"/>
  <polygon points="320,150 348,180 320,170 292,180" fill="#D4AF37" stroke="#B8860B" stroke-width="2"/>
  
  <!-- Crown decoration - jewels -->
  <circle cx="256" cy="200" r="20" fill="#FFD700"/>
  <circle cx="256" cy="200" r="12" fill="#FFA500"/>
  
  <circle cx="200" cy="260" r="12" fill="#FFD700"/>
  <circle cx="200" cy="260" r="6" fill="#DAA520"/>
  
  <circle cx="312" cy="260" r="12" fill="#FFD700"/>
  <circle cx="312" cy="260" r="6" fill="#DAA520"/>
  
  <!-- Crown base decoration -->
  <rect x="222" y="330" width="68" height="20" rx="5" fill="#D4AF37" stroke="#B8860B" stroke-width="2"/>
  
  <!-- Inner crown detail -->
  <path d="M240 180 L240 320 M272 180 L272 320" stroke="#B8860B" stroke-width="2" fill="none"/>
</svg>
