<?xml version="1.0" encoding="UTF-8"?>
<svg width="512" height="512" viewBox="0 0 512 512" xmlns="http://www.w3.org/2000/svg">
  <!-- Transparent background -->
  
  <!-- Simple minimalist golden crown - 3 points -->
  <path d="M106 200 L106 150 L156 150 L156 200 L256 200 L256 150 L306 150 L306 200 L406 200 L406 150 L456 150 L456 200 L456 280 L406 280 L406 280 L106 280 Z" 
        fill="#D4AF37"/>
  
  <!-- Simplified crown body -->
  <path d="M106 280 L126 380 L386 380 L406 280 Z" fill="#D4AF37"/>
  
  <!-- Three peaks with rounded tops -->
  <circle cx="156" cy="140" r="35" fill="#D4AF37"/>
  <circle cx="256" cy="120" r="35" fill="#D4AF37"/>
  <circle cx="356" cy="140" r="35" fill="#D4AF37"/>
  
  <!-- Crown base band -->
  <rect x="106" y="360" width="350" height="40" rx="8" ry="8" fill="#D4AF37"/>
  
  <!-- Simple decoration line -->
  <rect x="126" y="375" width="310" height="10" fill="#C5A028"/>
  
  <!-- Crown center jewel -->
  <circle cx="256" cy="380" r="20" fill="#FFD700"/>
  <circle cx="256" cy="380" r="10" fill="#DAA520"/>
</svg>
